<svg viewBox="0 0 260 260" xmlns="http://www.w3.org/2000/svg" role="img" aria-label="Cat">
  <defs>
    <linearGradient id="gCat" x1="0" y1="0" x2="0" y2="1">
      <stop offset="0" stop-color="#fde68a"/>
      <stop offset="1" stop-color="#f59e0b"/>
    </linearGradient>
  </defs>
  <circle cx="140" cy="130" r="78" fill="url(#gCat)"/>
  <path d="M88 78l22 30-34 8z" fill="#fbbf24"/>
  <path d="M192 78l-22 30 34 8z" fill="#fbbf24"/>
  <circle cx="120" cy="124" r="7" fill="#111827"/>
  <circle cx="164" cy="124" r="7" fill="#111827"/>
  <path d="M142 134c-10 0-18 6-18 14 0 6 6 10 18 10s18-4 18-10c0-8-8-14-18-14z" fill="#111827" opacity=".9"/>

  <g class="faceHappy">
    <path d="M118 160c10 10 22 15 36 15s26-5 36-15" fill="none" stroke="#111827" stroke-width="6" stroke-linecap="round" opacity=".35"/>
  </g>
  <g class="faceWorried" style="opacity:0">
    <path d="M118 176c12-12 24-16 36-16s24 4 36 16" fill="none" stroke="#111827" stroke-width="6" stroke-linecap="round" opacity=".35"/>
    <path d="M110 112c10-8 18-10 28-10" fill="none" stroke="#111827" stroke-width="6" stroke-linecap="round" opacity=".22"/>
    <path d="M176 112c-10-8-18-10-28-10" fill="none" stroke="#111827" stroke-width="6" stroke-linecap="round" opacity=".22"/>
  </g>
</svg>
